<svg xmlns="http://www.w3.org/2000/svg" width="220" height="64" viewBox="0 0 220 64" role="img" aria-labelledby="title">
  <title id="title">BatangAware</title>
  <defs>
    <linearGradient id="mark" x1="8" x2="54" y1="8" y2="54" gradientUnits="userSpaceOnUse">
      <stop stop-color="#4DB6AC"/>
      <stop offset="1" stop-color="#A4C639"/>
    </linearGradient>
  </defs>
  <rect width="64" height="64" rx="16" fill="#fff"/>
  <path fill="url(#mark)" d="M32 8c13.255 0 24 10.745 24 24S45.255 56 32 56 8 45.255 8 32 18.745 8 32 8Zm0 9.5A14.5 14.5 0 1 0 32 46.5 14.5 14.5 0 0 0 32 17.5Z"/>
  <path fill="#FFC12D" d="M32 22.5a9.5 9.5 0 0 1 9.5 9.5h-19a9.5 9.5 0 0 1 9.5-9.5Z"/>
  <path fill="#F59E0B" d="M22.5 33.5h19A9.5 9.5 0 0 1 32 43a9.5 9.5 0 0 1-9.5-9.5Z"/>
  <text x="76" y="30" fill="#172033" font-family="Segoe UI, Roboto, Arial, sans-serif" font-size="24" font-weight="800">Batang</text>
  <text x="76" y="52" fill="#58760e" font-family="Segoe UI, Roboto, Arial, sans-serif" font-size="24" font-weight="800">Aware</text>
</svg>
